<svg width="125" height="39" viewBox="0 0 125 39" fill="none" xmlns="http://www.w3.org/2000/svg">
<path fill-rule="evenodd" clip-rule="evenodd" d="M22.6859 17.7074L24.0237 12.9773H30.2295C33.4984 12.9773 35.4924 11.4852 36.3951 8.29795L36.898 6.5521C38.0497 2.50462 36.1713 0 32.0349 0H5.01393L0 17.7074H22.6859ZM32.0098 4.78085L30.9562 8.59992H25.2633L26.3446 4.79353L32.0098 4.78085ZM39.2038 17.7074L40.8659 14.7486H48.5527V17.7074H53.6169V0H43.6897L33.3374 17.7074H39.2038ZM46.4533 4.8062H48.5527V10.4473H43.2723L46.4533 4.8062ZM74.681 6.5521L74.2208 8.14569H74.2109C73.5519 10.493 72.3023 11.909 70.4062 12.5003L71.9905 17.7074H66.5844L65.1107 12.8251H61.8418L60.459 17.7074H55.1963L60.2075 0H69.8079C73.9442 0 75.8254 2.45386 74.681 6.5521ZM69.7854 4.78085H64.1202L63.0365 8.59992H68.7342L69.7854 4.78085ZM79.1596 17.7074L84.1707 0H78.9081L73.8938 17.7074H79.1596ZM41.0118 27.3172L46.9486 20.2373H53.7654L48.7542 37.9447H43.4886L46.3804 27.8196L41.4845 33.6181H38.1L36.2568 28.1445L33.4884 37.9447H10.8024L15.8163 20.2373H38.5777L41.0118 27.3172ZM60.7932 20.2373L50.4411 37.9447H56.3074L57.9696 34.9833H65.6564V37.9447H70.7179V20.2373H60.7932ZM60.3861 30.6846L63.5565 25.0435H65.6564V30.6846H60.3861ZM89.9192 20.2373L88.491 25.2973H83.55L79.9693 37.9447H74.7062L78.2869 25.2973H72.5236L73.9518 20.2373H89.9192ZM95.4837 25.2973H103.455L104.911 20.2373H96.4117C93.1427 20.2373 91.1486 21.7294 90.2462 24.9166L88.3902 31.3926C87.2134 35.5416 89.1171 37.9447 93.2534 37.9447H99.8714L101.3 32.8847H93.329L95.4837 25.2973ZM116.704 26.561L118.497 20.2373H123.76L118.746 37.9447H113.483L115.273 31.621H109.256L107.466 37.9447H102.202L107.217 20.2373H112.479L110.689 26.561H116.704Z" fill="white"/>
</svg>
